<svg xmlns="http://www.w3.org/2000/svg" width="192" height="240" viewBox="0 0 192 240" role="img" aria-label="fighter portrait">
  <defs>
    <linearGradient id="bg" x1="0" y1="0" x2="1" y2="1">
      <stop offset="0%" stop-color="#0f172a"/>
      <stop offset="100%" stop-color="#1f2937"/>
    </linearGradient>
    <linearGradient id="light" x1="0" y1="0" x2="1" y2="0">
      <stop offset="0%" stop-color="#ef4444" stop-opacity="0.15"/>
      <stop offset="100%" stop-color="#0ea5e9" stop-opacity="0.35"/>
    </linearGradient>
  </defs>
  <rect width="192" height="240" fill="url(#bg)"/>
  <rect x="0" y="0" width="192" height="240" fill="url(#light)"/>
  <circle cx="156" cy="42" r="28" fill="#ef4444" opacity="0.14"/>
  <rect x="18" y="20" width="156" height="200" rx="18" fill="none" stroke="rgba(255,255,255,0.12)"/>
  <path d="M36 226 C56 94, 136 94, 156 226" fill="#0b1220" opacity="0.95"/>
  <path d="M64 194 C74 162, 118 162, 128 194" fill="#111827"/>
  <ellipse cx="96" cy="102" rx="34" ry="42" fill="#5eead4"/>
  <path d="M62 98 C72 58, 120 58, 130 100 L130 84 C130 60, 112 44, 96 44 C78 44, 62 60, 62 84 Z" fill="#0f172a"/>
  <rect x="74" y="122" width="12" height="4" rx="2" fill="#111827" opacity="0.8"/>
  <rect x="106" y="122" width="12" height="4" rx="2" fill="#111827" opacity="0.8"/>
  <path d="M84 148 Q96 156 108 148" stroke="#7c2d12" stroke-width="4" fill="none" stroke-linecap="round"/>
  <path d="M80 132 Q96 124 112 132" stroke="#111827" stroke-width="3" fill="none" stroke-linecap="round" opacity="0.7"/>
  <path d="M71 108 Q80 54 90 108" stroke="#111827" stroke-width="4" fill="none" stroke-linecap="round"/>
  <path d="M102 108 Q112 54 121 108" stroke="#111827" stroke-width="4" fill="none" stroke-linecap="round"/>
  <path d="M68 170 C76 68, 116 68, 124 170" fill="none" stroke="#ef4444" stroke-opacity="0.55" stroke-width="3"/>
  <path d="M52 224 C64 206, 128 206, 140 224" fill="none" stroke="#ef4444" stroke-opacity="0.45" stroke-width="2"/>
</svg>
